<svg version="1.2"
    xmlns="http://www.w3.org/2000/svg" viewBox="0 0 400 400" width="200" height="200">
    <style>tspan{white-space:pre}.a{fill:#d6b658}.b{fill:#ffd24a}.c{fill:#f9d9c0}.d{fill:#464747}.e{fill:#fff}</style>
    <path class="a" d="m200 400c-110.6 0-200-89.4-200-200 0-110.6 89.4-200 200-200 110.6 0 200 89.4 200 200 0 110.6-89.4 200-200 200z"/>
    <path class="b" d="m298 102.3c-29.6-58.2-97.7-56-97.7-56 0 0-68.1-2.2-97.8 56v99.9h64.8l20.4 72.6h20.7l29.8-72.6h56.2z"/>
    <path class="c" d="m296.5 240.7l-22.4 111.1-31.2 30.5-38.7 5.3-3.9 0.5-4.8-0.4-37.4-3.2-31.7-32.7-18.5-111.1 84.3 34h16.2z"/>
    <path class="d" d="m60.6 0c0 0 20.4 96.6 96.2 173.6 0 0 21.5 20.5 24.1 50.8l11.3 50.4-79.1-25.2 13.3 102.2-30.4-36.2-4.6-75.4c0 0-65.5-34.7-30.8-240.2z"/>
    <path class="d" d="m339.9 0c0 0-20.4 96.6-96.1 173.6 0 0-20 18.1-24.2 50.8l-11.2 50.4 79.1-25.2-13.3 102.2 30.3-36.2 4.6-75.4c0 0 65.6-34.7 30.8-240.2z"/>
    <path class="e" d="m109.7 196.4l53.4 18.1c0 0-31.9 42-53.4-18.1z"/>
    <path class="e" d="m293 196.4l-53.4 18.1c0 0 31.9 42 53.4-18.1z"/>
</svg>