<svg version="1.2"
    xmlns="http://www.w3.org/2000/svg" viewBox="0 0 400 400" width="200" height="200">
    <style>tspan{white-space:pre}.a{fill:#d6b658}.b{fill:#ffd24a}.c{fill:#f9d9c0}.d{fill:#fff}.e{fill:#464747}.f{fill:#1d282c}</style>
    <path class="a" d="m200 400c-110.6 0-200-89.4-200-200 0-110.6 89.4-200 200-200 110.6 0 200 89.4 200 200 0 110.6-89.4 200-200 200z"/>
    <path class="b" d="m298 102.3c-29.6-58.2-97.7-56-97.7-56 0 0-68.1-2.2-97.8 56v99.9h64.8l20.4 72.6h20.7l29.8-72.6h56.2z"/>
    <path class="c" d="m296.5 240.7l-22.4 111.1-31.2 30.5-38.7 5.3-3.9 0.5-4.8-0.4-37.4-3.2-31.7-32.7-18.5-111.1 84.3 34h16.2z"/>
    <path fill-rule="evenodd" class="d" d="m292 113.7q4.9 0 7.1 2.2 2.5 2.2 2.5 5.7 0 5.8-3.6 10.1-3.2 4.4-10.4 4.6-17.6 0.4-31.1-2.6-15.6 32.6-37.7 54.3-22 21.5-44.1 21.5-22.7 0-34-26.6-11.1-26.4-11.1-71.5 0-38.6 5.5-69.3 2-11.4 5.4-15.4 3.8-4.1 12.6-4.1 14.4 0 14.4 12.5 0 1.3-0.4 4.8-6.6 39.4-6.6 71.5 0 33.5 5.5 51 5.7 17.3 16.8 17.3 11.4 0 24.8-15.7 13.4-15.9 24.5-39.7-13.3-8.4-20.2-21.5-6.7-13.4-6.7-30.7 0-17.3 5.2-29.2 5.5-12 14.7-17.8 9.4-6 20.8-6 14.1 0 22.2 10.1 8.3 10.1 8.3 27.6 0 25.2-11 55 11.7 1.9 26.6 1.9zm-64.7-43.1q0 21.5 13.8 31.7 8.5-24.5 8.5-40.5 0-9.2-2.4-13.4-2.4-4.4-6.5-4.4-5.9 0-9.7 7.1-3.7 6.8-3.7 19.5z"/>
    <path class="e" d="m60.6 0c0 0 20.4 96.6 96.2 173.6 0 0 21.5 20.5 24.1 50.8l11.3 50.4-79.1-25.2 13.3 102.2-30.4-36.2-4.6-75.4c0 0-65.5-34.7-30.8-240.2z"/>
    <path class="e" d="m339.9 0c0 0-20.4 96.6-96.1 173.6 0 0-20 18.1-24.2 50.8l-11.2 50.4 79.1-25.2-13.3 102.2 30.3-36.2 4.6-75.4c0 0 65.6-34.7 30.8-240.2z"/>
    <path class="d" d="m109.7 196.4l53.4 18.1c0 0-31.9 42-53.4-18.1z"/>
    <path class="d" d="m293 196.4l-53.4 18.1c0 0 31.9 42 53.4-18.1z"/>
    <path class="f" d="m236 336c0-6.1 4.9-11 11-11h129c6.1 0 11 4.9 11 11v44.4c0 6.1-4.9 11-11 11h-129c-6.1 0-11-4.9-11-11z"/>
    <path fill-rule="evenodd" class="d" d="m320.8 375.4h-7.3l-2.3-7.6-11.5 0.1-2.3 7.5h-7.2l11.1-31.8h8.2zm-19.3-13.2h8.2l-2.3-7.3q-0.2-0.8-0.6-1.9-0.3-1.2-0.7-2.4-0.3-1.2-0.5-2.1-0.3 0.9-0.7 2.2-0.3 1.3-0.7 2.5-0.3 1.2-0.5 1.7zm30.1 13.1h-6.7v-31.6h6.7z"/>
</svg>